<?xml version="1.0" encoding="UTF-8"?>
<svg id="Layer_2" data-name="Layer 2" xmlns="http://www.w3.org/2000/svg" viewBox="0 0 295.34 335.72">
  <defs>
    <style>
      .cls-1 {
        stroke: #000;
        stroke-miterlimit: 10;
      }

      .cls-1, .cls-2 {
        fill: #000;
      }

      .cls-2, .cls-3, .cls-4 {
        stroke-width: 0px;
      }

      .cls-3 {
        fill: red;
      }

      .cls-5 {
        font-family: Rockwell-Bold, Rockwell;
        font-size: 83.08px;
        font-weight: 700;
      }

      .cls-5, .cls-4 {
        fill: #fff;
      }
    </style>
  </defs>
  <g id="Layer_1-2" data-name="Layer 1">
    <g>
      <g>
        <rect class="cls-1" x="116.27" y=".5" width="66.2" height="79.77" rx="6.21" ry="6.21"/>
        <g>
          <rect class="cls-4" x=".5" y="40.89" width="294.33" height="294.34" rx="32.5" ry="32.5"/>
          <path class="cls-2" d="M262.34,41.39c17.64,0,32,14.36,32,32v229.34c0,17.64-14.36,32-32,32H33c-17.64,0-32-14.36-32-32V73.39c0-17.64,14.36-32,32-32h229.34M262.34,40.39H33C14.77,40.39,0,55.16,0,73.39v229.34c0,18.23,14.77,33,33,33h229.34c18.23,0,33-14.77,33-33V73.39c0-18.23-14.77-33-33-33h0Z"/>
        </g>
        <g>
          <path class="cls-3" d="M147.67,287.7c-54.94,0-99.64-44.7-99.64-99.64s44.7-99.64,99.64-99.64,99.64,44.7,99.64,99.64-44.7,99.64-99.64,99.64Z"/>
          <path class="cls-2" d="M147.67,88.91c54.67,0,99.14,44.48,99.14,99.14s-44.48,99.14-99.14,99.14-99.14-44.48-99.14-99.14,44.48-99.14,99.14-99.14M147.67,87.91c-55.31,0-100.14,44.84-100.14,100.14s44.84,100.14,100.14,100.14,100.14-44.84,100.14-100.14-44.84-100.14-100.14-100.14h0Z"/>
        </g>
      </g>
      <g>
        <path class="cls-2" d="M147.71,280.62c-1.13,0-2.32-.7-2.42-2.26l-.83-12.19c-.37-5.43-4.77-8.27-8.93-8.27-3.71,0-6.75,2.08-8.16,5.57l-4.56,11.33c-.39.98-1.19,1.54-2.18,1.54-.8,0-1.58-.37-2.05-.97-.31-.4-.62-1.07-.38-2.06l2.97-11.85c.69-2.74.15-5.42-1.51-7.54-1.72-2.21-4.42-3.53-7.21-3.53-2.58,0-4.95,1.14-6.69,3.22l-7.84,9.37c-.5.59-1.12.91-1.81.91-.89,0-1.79-.54-2.24-1.34-.42-.76-.38-1.61.12-2.41l6.49-10.35c1.77-2.83,1.89-6.08.32-8.92-1.59-2.87-4.65-4.73-7.81-4.73-1.65,0-3.24.48-4.74,1.41l-10.35,6.49c-.43.27-.88.41-1.33.41-.98,0-1.92-.7-2.28-1.7-.17-.46-.43-1.64.76-2.63l9.37-7.84c2.94-2.46,3.97-6.21,2.67-9.78-1.31-3.6-4.53-5.93-8.21-5.93-.76,0-1.54.1-2.31.29l-11.85,2.97c-.23.06-.46.09-.68.09-1.31,0-2.11-1.05-2.3-2.02-.18-.93.12-2.13,1.49-2.68l11.33-4.56c4.53-1.82,6-6.14,5.45-9.62-.55-3.48-3.29-7.13-8.16-7.46l-12.19-.83c-1.56-.11-2.26-1.29-2.26-2.42s.7-2.32,2.26-2.42l12.19-.83c4.87-.33,7.61-3.99,8.16-7.46.55-3.48-.92-7.8-5.45-9.62l-11.33-4.56c-1.37-.55-1.67-1.75-1.49-2.68.19-.97.99-2.02,2.3-2.02.22,0,.45.03.68.09l11.85,2.97c.78.19,1.55.29,2.31.29,3.68,0,6.9-2.33,8.21-5.93,1.3-3.57.27-7.32-2.67-9.78l-9.37-7.84c-1.19-.99-.93-2.17-.76-2.63.36-1,1.3-1.7,2.28-1.7.45,0,.89.14,1.33.41l10.35,6.49c1.5.94,3.09,1.41,4.74,1.41,3.16,0,6.22-1.85,7.81-4.73,1.57-2.84,1.46-6.09-.32-8.92l-6.49-10.35c-.5-.8-.54-1.65-.12-2.41.45-.8,1.34-1.35,2.24-1.35.69,0,1.31.31,1.81.91l7.84,9.37c1.74,2.08,4.11,3.22,6.69,3.22,2.79,0,5.49-1.32,7.21-3.53,1.66-2.13,2.19-4.81,1.51-7.54l-2.97-11.85c-.25-.98.07-1.66.38-2.06.47-.6,1.26-.98,2.05-.98.99,0,1.79.56,2.18,1.54l4.56,11.33c1.4,3.49,4.45,5.57,8.16,5.57,4.16,0,8.56-2.84,8.93-8.27l.83-12.19c.11-1.56,1.29-2.26,2.42-2.26s2.32.7,2.42,2.26l.83,12.19c.37,5.43,4.77,8.27,8.93,8.27,3.71,0,6.75-2.08,8.16-5.57l4.56-11.33c.39-.98,1.19-1.54,2.18-1.54.8,0,1.58.37,2.05.98.31.4.62,1.07.38,2.06l-2.97,11.85c-.69,2.74-.15,5.42,1.51,7.54,1.72,2.21,4.42,3.53,7.21,3.53,2.58,0,4.95-1.14,6.69-3.22l7.84-9.37c.5-.59,1.12-.91,1.81-.91.89,0,1.79.54,2.24,1.35.42.76.38,1.61-.12,2.41l-6.49,10.35c-1.77,2.83-1.89,6.08-.32,8.92,1.59,2.87,4.65,4.73,7.81,4.73,1.65,0,3.24-.48,4.74-1.41l10.35-6.49c.43-.27.88-.41,1.33-.41.98,0,1.92.7,2.28,1.7.17.46.43,1.64-.76,2.63l-9.37,7.84c-2.94,2.46-3.97,6.21-2.67,9.78,1.31,3.6,4.53,5.93,8.21,5.93.76,0,1.54-.1,2.31-.29l11.85-2.97c.23-.06.46-.09.68-.09,1.31,0,2.11,1.05,2.3,2.02.18.93-.12,2.13-1.49,2.68l-11.33,4.56c-4.53,1.82-6,6.14-5.45,9.62.55,3.48,3.29,7.13,8.16,7.46l12.19.83c1.56.11,2.26,1.29,2.26,2.42s-.7,2.32-2.26,2.42l-12.19.83c-4.87.33-7.61,3.99-8.16,7.46-.55,3.48.92,7.8,5.45,9.62l11.33,4.56c1.37.55,1.67,1.75,1.49,2.68-.19.97-.99,2.02-2.3,2.02-.22,0-.45-.03-.68-.09l-11.85-2.97c-.78-.19-1.55-.29-2.31-.29-3.68,0-6.9,2.33-8.21,5.93-1.3,3.57-.27,7.32,2.67,9.78l9.37,7.84c1.19.99.93,2.17.76,2.63-.36,1-1.3,1.7-2.28,1.7-.45,0-.89-.14-1.33-.41l-10.35-6.49c-1.5-.94-3.09-1.41-4.74-1.41-3.16,0-6.22,1.85-7.81,4.73-1.57,2.84-1.46,6.09.32,8.92l6.49,10.35c.5.8.54,1.65.12,2.41-.45.8-1.34,1.35-2.24,1.35-.69,0-1.31-.31-1.81-.91l-7.84-9.37c-1.74-2.08-4.11-3.22-6.69-3.22-2.79,0-5.49,1.32-7.21,3.53-1.66,2.13-2.19,4.81-1.51,7.54l2.97,11.85c.25.98-.07,1.66-.38,2.06-.47.6-1.26.98-2.05.98-.99,0-1.79-.56-2.18-1.54l-4.56-11.33c-1.4-3.49-4.45-5.57-8.16-5.57-4.15,0-8.55,2.84-8.93,8.27l-.83,12.19c-.11,1.56-1.29,2.26-2.42,2.26Z"/>
        <path class="cls-2" d="M147.71,100.53c.83,0,1.83.47,1.92,1.8l.83,12.19c.39,5.74,5.04,8.74,9.43,8.74,3.86,0,7.16-2.25,8.62-5.88l4.56-11.33c.43-1.06,1.26-1.22,1.72-1.22.65,0,1.28.3,1.66.78.34.44.44,1.01.29,1.63l-2.97,11.85c-.73,2.89-.16,5.72,1.6,7.97,1.82,2.33,4.66,3.72,7.61,3.72,2.73,0,5.24-1.21,7.07-3.4l7.84-9.37c.4-.48.88-.73,1.43-.73.72,0,1.44.44,1.8,1.09.23.42.4,1.09-.11,1.9l-6.49,10.35c-1.87,2.99-1.99,6.42-.33,9.42,1.68,3.03,4.91,4.98,8.25,4.98,1.74,0,3.43-.5,5-1.49l10.35-6.49c.35-.22.71-.33,1.06-.33.77,0,1.52.56,1.81,1.37.16.45.3,1.32-.61,2.08l-9.37,7.84c-3.11,2.6-4.19,6.56-2.82,10.33,1.38,3.8,4.79,6.26,8.68,6.26.8,0,1.62-.1,2.43-.31l11.85-2.97c.19-.05.38-.07.56-.07,1.04,0,1.66.81,1.81,1.61.07.36.19,1.57-1.18,2.12l-11.33,4.56c-4.79,1.92-6.34,6.49-5.76,10.16.58,3.67,3.47,7.53,8.62,7.88l12.19.83c1.33.09,1.8,1.09,1.8,1.92s-.47,1.83-1.8,1.92l-12.19.83c-5.15.35-8.04,4.21-8.62,7.88-.58,3.67.97,8.24,5.76,10.16l11.33,4.56c1.37.55,1.25,1.76,1.18,2.12-.16.8-.78,1.61-1.81,1.61-.18,0-.37-.02-.56-.07l-11.85-2.97c-.82-.2-1.63-.31-2.43-.31-3.89,0-7.3,2.46-8.68,6.26-1.37,3.77-.29,7.73,2.82,10.33l9.37,7.84c.91.76.77,1.63.61,2.08-.29.81-1.04,1.37-1.81,1.37-.35,0-.71-.11-1.06-.33l-10.35-6.49c-1.58-.99-3.26-1.49-5-1.49-3.33,0-6.57,1.96-8.25,4.98-1.66,3-1.54,6.44.33,9.43l6.49,10.35c.51.81.34,1.48.11,1.9-.36.65-1.08,1.09-1.8,1.09-.54,0-1.02-.24-1.43-.73l-7.84-9.37c-1.83-2.19-4.35-3.4-7.07-3.4-2.95,0-5.79,1.39-7.61,3.72-1.76,2.25-2.32,5.08-1.6,7.97l2.97,11.85c.16.62.06,1.19-.29,1.63-.38.48-1.01.78-1.66.78-.46,0-1.29-.16-1.72-1.22l-4.56-11.33c-1.46-3.63-4.76-5.88-8.62-5.88-4.39,0-9.03,3-9.43,8.74l-.83,12.19c-.09,1.33-1.09,1.8-1.92,1.8s-1.83-.47-1.92-1.8l-.83-12.19c-.39-5.74-5.04-8.74-9.43-8.74-3.86,0-7.16,2.25-8.62,5.88l-4.56,11.33c-.43,1.06-1.26,1.22-1.72,1.22-.65,0-1.28-.3-1.66-.78-.34-.44-.44-1.01-.29-1.63l2.97-11.85c.73-2.89.16-5.72-1.6-7.97-1.82-2.33-4.66-3.72-7.61-3.72-2.73,0-5.24,1.21-7.07,3.4l-7.84,9.37c-.4.48-.88.73-1.43.73-.72,0-1.44-.44-1.8-1.09-.23-.42-.4-1.09.11-1.9l6.49-10.35c1.87-2.99,1.99-6.42.33-9.42-1.68-3.03-4.91-4.98-8.25-4.99-1.74,0-3.43.5-5,1.49l-10.35,6.49c-.35.22-.71.33-1.06.33-.77,0-1.52-.56-1.81-1.37-.16-.45-.3-1.32.61-2.08l9.37-7.84c3.11-2.6,4.19-6.56,2.82-10.33-1.38-3.8-4.79-6.26-8.68-6.26-.8,0-1.62.1-2.43.31l-11.85,2.97c-.19.05-.38.07-.56.07-1.04,0-1.66-.81-1.81-1.61-.07-.36-.19-1.57,1.18-2.12l11.33-4.56c4.79-1.92,6.34-6.49,5.76-10.16-.58-3.67-3.47-7.53-8.62-7.88l-12.19-.83c-1.33-.09-1.8-1.09-1.8-1.92s.47-1.83,1.8-1.92l12.19-.83c5.15-.35,8.04-4.21,8.62-7.88.58-3.67-.97-8.24-5.76-10.16l-11.33-4.56c-1.37-.55-1.25-1.76-1.18-2.12.16-.8.78-1.61,1.81-1.61.18,0,.37.02.56.07l11.85,2.97c.82.2,1.63.31,2.43.31,3.89,0,7.3-2.46,8.68-6.26,1.37-3.77.29-7.73-2.82-10.33l-9.37-7.84c-.91-.76-.77-1.63-.61-2.08.29-.81,1.04-1.37,1.81-1.37.35,0,.71.11,1.06.33l10.35,6.49c1.58.99,3.26,1.49,5,1.49,3.33,0,6.57-1.96,8.25-4.98,1.66-3,1.54-6.44-.33-9.43l-6.49-10.35c-.51-.81-.34-1.48-.11-1.9.36-.65,1.08-1.09,1.8-1.09.54,0,1.02.24,1.43.73l7.84,9.37c1.83,2.19,4.35,3.4,7.07,3.4,2.95,0,5.79-1.39,7.61-3.72,1.76-2.25,2.32-5.08,1.6-7.97l-2.97-11.85c-.16-.62-.06-1.19.29-1.63.38-.48,1.01-.78,1.66-.78.46,0,1.29.16,1.72,1.22l4.56,11.33c1.46,3.63,4.76,5.88,8.62,5.88,4.39,0,9.03-3,9.43-8.74l.83-12.19c.09-1.33,1.09-1.8,1.92-1.8M147.71,99.53c-1.4,0-2.8.91-2.92,2.73l-.83,12.19c-.34,5.01-4.38,7.81-8.43,7.81-3.12,0-6.25-1.66-7.69-5.25l-4.56-11.33c-.52-1.29-1.58-1.85-2.65-1.85-1.73,0-3.46,1.47-2.91,3.66l2.97,11.85c1.49,5.94-3.27,10.45-8.23,10.45-2.24,0-4.53-.92-6.31-3.04l-7.84-9.37c-.64-.76-1.43-1.09-2.19-1.09-2.04,0-3.94,2.27-2.54,4.52l6.49,10.35c3.8,6.05-1.09,12.88-7.07,12.88-1.46,0-2.99-.41-4.47-1.34l-10.35-6.49c-.54-.34-1.08-.49-1.59-.49-2.41,0-4.15,3.28-1.84,5.21l9.37,7.84c6.22,5.21,2.1,14.82-5.22,14.82-.7,0-1.44-.09-2.19-.28l-11.85-2.97c-.28-.07-.55-.1-.81-.1-2.96,0-4.12,4.41-1,5.66l11.33,4.56c8.25,3.32,6.32,15.51-2.55,16.12l-12.19.83c-3.64.25-3.64,5.6,0,5.85l12.19.83c8.87.61,10.8,12.8,2.55,16.12l-11.33,4.56c-3.12,1.25-1.96,5.66,1,5.66.26,0,.53-.03.81-.1l11.85-2.97c.76-.19,1.49-.28,2.19-.28,7.32,0,11.44,9.61,5.22,14.82l-9.37,7.84c-2.31,1.93-.57,5.21,1.84,5.21.51,0,1.05-.15,1.59-.49l10.35-6.49c1.48-.93,3.01-1.34,4.47-1.34,5.98,0,10.86,6.83,7.07,12.88l-6.49,10.35c-1.41,2.25.49,4.52,2.54,4.52.77,0,1.55-.32,2.19-1.09l7.84-9.37c1.78-2.12,4.06-3.04,6.31-3.04,4.97,0,9.73,4.51,8.23,10.45l-2.97,11.85c-.55,2.19,1.19,3.66,2.91,3.66,1.06,0,2.13-.56,2.65-1.85l4.56-11.33c1.44-3.59,4.57-5.25,7.69-5.25,4.05,0,8.09,2.8,8.43,7.81l.83,12.19c.12,1.82,1.52,2.73,2.92,2.73s2.8-.91,2.92-2.73l.83-12.19c.34-5.01,4.38-7.81,8.43-7.81,3.12,0,6.25,1.66,7.69,5.25l4.56,11.33c.52,1.29,1.58,1.85,2.65,1.85,1.73,0,3.46-1.47,2.91-3.66l-2.97-11.85c-1.49-5.94,3.27-10.45,8.23-10.45,2.24,0,4.53.92,6.31,3.04l7.84,9.37c.64.76,1.43,1.09,2.19,1.09,2.04,0,3.94-2.27,2.54-4.52l-6.49-10.35c-3.8-6.05,1.09-12.88,7.07-12.88,1.46,0,2.99.41,4.47,1.34l10.35,6.49c.54.34,1.08.49,1.59.49,2.41,0,4.15-3.28,1.84-5.21l-9.37-7.84c-6.22-5.21-2.1-14.82,5.22-14.82.7,0,1.44.09,2.19.28l11.85,2.97c.28.07.55.1.81.1,2.96,0,4.12-4.41,1-5.66l-11.33-4.56c-8.25-3.32-6.32-15.51,2.55-16.12l12.19-.83c3.64-.25,3.64-5.6,0-5.85l-12.19-.83c-8.87-.61-10.8-12.8-2.55-16.12l11.33-4.56c3.12-1.25,1.96-5.66-1-5.66-.26,0-.53.03-.81.1l-11.85,2.97c-.76.19-1.49.28-2.19.28-7.32,0-11.44-9.61-5.22-14.82l9.37-7.84c2.31-1.93.57-5.21-1.84-5.21-.51,0-1.05.15-1.59.49l-10.35,6.49c-1.48.93-3.01,1.34-4.47,1.34-5.98,0-10.86-6.83-7.07-12.88l6.49-10.35c1.41-2.25-.49-4.52-2.54-4.52-.77,0-1.55.32-2.19,1.09l-7.84,9.37c-1.78,2.12-4.06,3.04-6.31,3.04-4.97,0-9.73-4.51-8.23-10.45l2.97-11.85c.55-2.19-1.19-3.66-2.91-3.66-1.06,0-2.13.56-2.65,1.85l-4.56,11.33c-1.44,3.59-4.57,5.25-7.69,5.25-4.05,0-8.09-2.8-8.43-7.81l-.83-12.19c-.12-1.82-1.52-2.73-2.92-2.73h0Z"/>
      </g>
      <text class="cls-5" transform="translate(89.14 218.62)"><tspan x="0" y="0">TR</tspan></text>
    </g>
  </g>
</svg>